<?xml version="1.0" standalone="no"?>
<!DOCTYPE svg PUBLIC "-//W3C//DTD SVG 20010904//EN"
 "http://www.w3.org/TR/2001/REC-SVG-20010904/DTD/svg10.dtd">
<svg version="1.0" xmlns="http://www.w3.org/2000/svg"
 width="581.000000pt" height="367.000000pt" viewBox="0 0 581.000000 367.000000"
 preserveAspectRatio="xMidYMid meet">

<g transform="translate(0.000000,367.000000) scale(0.100000,-0.100000)"
fill="#000000" stroke="none">
<path d="M2599 3346 c-3 -3 -52 -10 -111 -16 -114 -11 -286 -52 -408 -96 -484
-173 -746 -547 -821 -1169 -14 -124 -7 -352 16 -455 25 -115 97 -322 160 -463
109 -242 221 -412 362 -548 119 -115 212 -171 368 -223 137 -45 152 -47 573
-72 349 -22 865 200 1167 501 219 219 343 490 384 840 31 262 -8 445 -162 765
-203 420 -479 699 -836 843 -111 44 -177 62 -316 82 -91 13 -366 21 -376 11z
m595 -622 c24 -23 24 -555 0 -578 -13 -14 -66 -16 -424 -16 -394 0 -410 1
-420 19 -6 12 -10 123 -10 290 0 232 2 272 16 285 13 14 65 16 419 16 354 0
406 -2 419 -16z m-617 -649 l22 -25 306 0 c264 0 305 -2 305 -15 0 -13 -40
-15 -301 -15 l-301 0 -35 -30 c-18 -16 -45 -30 -58 -30 -23 0 -65 34 -65 52 0
4 -25 8 -55 8 -42 0 -55 3 -55 15 0 11 12 15 51 15 44 0 55 4 80 31 24 25 34
30 57 25 15 -4 37 -18 49 -31z m-727 -368 c0 -73 49 -206 98 -267 17 -21 21
-22 34 -10 49 51 138 216 138 258 0 18 5 22 34 22 62 0 97 -11 91 -29 -41
-133 -49 -493 -13 -609 13 -43 5 -50 -57 -54 l-50 -3 -1 110 c-1 61 1 130 5
155 3 25 4 83 1 130 l-5 85 -43 -82 c-24 -46 -38 -83 -33 -83 24 0 9 -28 -33
-63 l-45 -37 -42 75 c-24 41 -45 73 -47 70 -2 -2 4 -103 14 -224 10 -121 15
-223 11 -227 -6 -6 -38 -1 -117 20 -8 3 -21 5 -29 5 -11 1 -12 11 -6 49 4 26
9 67 11 92 2 25 6 67 9 94 10 106 -29 360 -71 465 -9 23 -13 45 -10 49 6 6
116 36 149 41 4 0 7 -14 7 -32z m695 14 c23 -10 53 -32 67 -49 47 -56 51 -88
44 -296 -6 -162 -10 -203 -32 -273 -28 -95 -42 -107 -124 -107 -86 0 -101 8
-141 71 l-37 58 -11 206 c-9 178 -9 213 4 257 19 63 57 109 110 133 50 23 70
23 120 0z m627 -22 c16 -9 15 -15 -16 -77 -50 -99 -92 -225 -110 -331 -21
-124 -20 -163 4 -204 l21 -35 -68 -26 c-38 -14 -74 -26 -80 -26 -7 0 -15 17
-18 38 -17 98 -105 406 -165 579 l-29 81 72 14 c40 7 76 13 82 13 5 0 10 -22
12 -50 5 -88 22 -188 50 -287 14 -54 28 -96 31 -94 2 3 17 55 32 117 16 61 35
116 42 120 8 5 9 9 2 9 -10 0 15 110 41 187 4 12 43 1 97 -28z m235 26 c2 -1
-5 -42 -14 -91 -30 -169 -20 -417 23 -568 8 -27 13 -50 11 -52 -1 -1 -27 -5
-57 -8 -30 -4 -67 -9 -81 -12 l-26 -5 1 213 c1 117 -3 286 -7 375 l-8 163 78
-6 c43 -4 79 -8 80 -9z m453 -66 l0 -81 -32 9 c-18 4 -64 8 -103 8 l-70 0 -3
-112 -3 -113 39 0 c21 0 43 5 50 12 17 17 20 10 23 -52 l4 -55 -30 4 c-71 10
-79 8 -86 -24 -4 -16 -7 -60 -8 -97 -1 -62 1 -68 22 -73 22 -5 134 7 175 20
22 7 22 6 22 -73 l0 -81 -30 9 c-17 5 -103 14 -191 21 -138 11 -159 15 -154
28 13 32 36 128 46 191 10 61 14 331 5 375 -2 11 -10 48 -16 83 -7 34 -11 64
-9 66 2 2 38 -1 79 -5 67 -7 247 4 259 16 10 10 11 2 11 -76z"/>
<path d="M2378 2463 c-2 -131 -2 -250 0 -265 l3 -28 395 0 394 0 0 265 0 265
-395 0 -394 0 -3 -237z m424 60 c109 -67 110 -100 9 -168 -114 -77 -151 -57
-151 80 0 133 34 154 142 88z"/>
<path d="M2700 2435 c0 -76 2 -85 18 -85 23 0 132 71 132 85 0 15 -109 85
-131 85 -17 0 -19 -9 -19 -85z"/>
<path d="M2491 2052 c-20 -37 27 -70 57 -40 16 16 15 23 -4 42 -20 21 -41 20
-53 -2z"/>
<path d="M2149 1263 c-13 -16 -12 -17 4 -4 9 7 17 15 17 17 0 8 -8 3 -21 -13z"/>
<path d="M2454 1576 c-17 -13 -19 -30 -22 -188 -2 -95 1 -191 5 -213 8 -37 12
-40 44 -43 31 -3 36 1 51 34 18 39 17 108 -2 308 -12 115 -28 137 -76 102z"/>
</g>
</svg>
